<?xml version="1.0" standalone="no"?>
<svg xmlns:xlink="http://www.w3.org/1999/xlink" class="h-full" xmlns="http://www.w3.org/2000/svg" viewBox="0 0 881 811"> <path class="fill-primary" d="M730.66.33c-32.16,2.38-53.65,19.43-70.8,37.39-2.65,2.94-3.78,4.29-5.51,6.55,0,0-309.38,362.32-309.38,362.32l5.5.14c1.83-2.26,306.97-359.66,308.39-361.73,5.28-6.31,10.13-11.46,19.05-18.74,11.74-9.39,30.46-20.82,52.85-21.93,0,0,141.56-.31,141.56-.31l-343.04,402.64h5.02L881,0l-150.34.33Z"/> <path class="fill-secondary" d="M529.28,406.66c-55.31,62.04-265.05,315.55-326.19,378.08-11.74,9.39-30.46,20.82-52.85,21.93,0,0-141.56.31-141.56.31l341.79-400.24c-1.25-.06-4.22-.12-5.5-.14L0,811s150.34-.33,150.34-.33c23.55-1.16,43.04-13.05,55.24-22.81,64.11-65.88,270.05-315.68,328.71-381.2h-5.02Z"/> </svg>